<?xml version="1.0" encoding="utf-8"?>
<svg width="900" height="1048" viewBox="0 0 900 1048" class="keymap" xmlns="http://www.w3.org/2000/svg">
  <style>/* font and background color specifications */
svg {
    font-family: SFMono-Regular,Consolas,Liberation Mono,Menlo,monospace;
    font-size: 14px;
    font-kerning: normal;
    text-rendering: optimizeLegibility;
    fill: #24292e;
}

/* default key styling */
rect {
    fill: #f6f8fa;
    stroke: #c9cccf;
    stroke-width: 1;
}

/* color accent for combo boxes */
rect.combo {
    fill: #cdf;
}

/* color accent for held keys */
rect.held, rect.combo.held {
    fill: #fdd;
}

/* color accent for ghost (optional) keys */
rect.ghost, rect.combo.ghost {
    fill: #ddd;
}

text {
    text-anchor: middle;
    dominant-baseline: middle;
}

/* styling for layer labels */
text.label {
    font-weight: bold;
    text-anchor: start;
    stroke: white;
    stroke-width: 2;
    paint-order: stroke;
}

/* styling for combo tap, and key hold/shifted label text */
text.combo, text.hold, text.shifted {
    font-size: 11px;
}

text.hold {
    text-anchor: middle;
    dominant-baseline: auto;
}

text.shifted {
    text-anchor: middle;
    dominant-baseline: hanging;
}

/* styling for hold/shifted label text in combo box */
text.combo.hold, text.combo.shifted {
    font-size: 8px;
}

/* styling for combo dendrons */
path {
    stroke-width: 1;
    stroke: gray;
    fill: none;
}
</style>
  <g transform="translate(30, 0)" class="layer-base">
    <text x="0" y="28" class="label" id="base" style="white-space: pre;">base:</text>
    <g transform="translate(0, 56)">
      <g transform="translate(28, 49)" class="key keypos-0">
        <rect rx="6" ry="6" x="-26" y="-26" width="52" height="52" class="key"/>
        <text x="0" y="0" class="key tap" style="white-space: pre;">↹</text>
      </g>
      <g transform="translate(84, 49)" class="key keypos-1">
        <rect rx="6" ry="6" x="-26" y="-26" width="52" height="52" class="key"/>
        <text x="0" y="0" class="key tap" style="white-space: pre;">Q</text>
      </g>
      <g transform="translate(140, 35)" class="key keypos-2">
        <rect rx="6" ry="6" x="-26" y="-26" width="52" height="52" class="key"/>
        <text x="0" y="0" class="key tap" style="white-space: pre;">W</text>
      </g>
      <g transform="translate(196, 28)" class="key keypos-3">
        <rect rx="6" ry="6" x="-26" y="-26" width="52" height="52" class="key"/>
        <text x="0" y="0" class="key tap" style="white-space: pre;">E</text>
      </g>
      <g transform="translate(252, 35)" class="key keypos-4">
        <rect rx="6" ry="6" x="-26" y="-26" width="52" height="52" class="key"/>
        <text x="0" y="0" class="key tap" style="white-space: pre;">R</text>
      </g>
      <g transform="translate(308, 42)" class="key keypos-5">
        <rect rx="6" ry="6" x="-26" y="-26" width="52" height="52" class="key"/>
        <text x="0" y="0" class="key tap" style="white-space: pre;">T</text>
      </g>
      <g transform="translate(532, 42)" class="key keypos-6">
        <rect rx="6" ry="6" x="-26" y="-26" width="52" height="52" class="key"/>
        <text x="0" y="0" class="key tap" style="white-space: pre;">Y</text>
      </g>
      <g transform="translate(588, 35)" class="key keypos-7">
        <rect rx="6" ry="6" x="-26" y="-26" width="52" height="52" class="key"/>
        <text x="0" y="0" class="key tap" style="white-space: pre;">U</text>
      </g>
      <g transform="translate(644, 28)" class="key keypos-8">
        <rect rx="6" ry="6" x="-26" y="-26" width="52" height="52" class="key"/>
        <text x="0" y="0" class="key tap" style="white-space: pre;">I</text>
      </g>
      <g transform="translate(700, 35)" class="key keypos-9">
        <rect rx="6" ry="6" x="-26" y="-26" width="52" height="52" class="key"/>
        <text x="0" y="0" class="key tap" style="white-space: pre;">O</text>
      </g>
      <g transform="translate(756, 49)" class="key keypos-10">
        <rect rx="6" ry="6" x="-26" y="-26" width="52" height="52" class="key"/>
        <text x="0" y="0" class="key tap" style="white-space: pre;">P</text>
      </g>
      <g transform="translate(812, 49)" class="key keypos-11">
        <rect rx="6" ry="6" x="-26" y="-26" width="52" height="52" class="key"/>
        <text x="0" y="0" class="key tap" style="white-space: pre;">BSPC</text>
      </g>
      <g transform="translate(28, 105)" class="key keypos-12">
        <rect rx="6" ry="6" x="-26" y="-26" width="52" height="52" class="key"/>
        <text x="0" y="0" class="key tap" style="white-space: pre;">ESC</text>
      </g>
      <g transform="translate(84, 105)" class="key keypos-13">
        <rect rx="6" ry="6" x="-26" y="-26" width="52" height="52" class="key"/>
        <text x="0" y="0" class="key tap" style="white-space: pre;">A</text>
      </g>
      <g transform="translate(140, 91)" class="key keypos-14">
        <rect rx="6" ry="6" x="-26" y="-26" width="52" height="52" class="key"/>
        <text x="0" y="0" class="key tap" style="white-space: pre;">S</text>
      </g>
      <g transform="translate(196, 84)" class="key keypos-15">
        <rect rx="6" ry="6" x="-26" y="-26" width="52" height="52" class="key"/>
        <text x="0" y="0" class="key tap" style="white-space: pre;">D</text>
      </g>
      <g transform="translate(252, 91)" class="key keypos-16">
        <rect rx="6" ry="6" x="-26" y="-26" width="52" height="52" class="key"/>
        <text x="0" y="0" class="key tap" style="white-space: pre;">F</text>
      </g>
      <g transform="translate(308, 98)" class="key keypos-17">
        <rect rx="6" ry="6" x="-26" y="-26" width="52" height="52" class="key"/>
        <text x="0" y="0" class="key tap" style="white-space: pre;">G</text>
      </g>
      <g transform="translate(532, 98)" class="key keypos-18">
        <rect rx="6" ry="6" x="-26" y="-26" width="52" height="52" class="key"/>
        <text x="0" y="0" class="key tap" style="white-space: pre;">H</text>
      </g>
      <g transform="translate(588, 91)" class="key keypos-19">
        <rect rx="6" ry="6" x="-26" y="-26" width="52" height="52" class="key"/>
        <text x="0" y="0" class="key tap" style="white-space: pre;">J</text>
      </g>
      <g transform="translate(644, 84)" class="key keypos-20">
        <rect rx="6" ry="6" x="-26" y="-26" width="52" height="52" class="key"/>
        <text x="0" y="0" class="key tap" style="white-space: pre;">K</text>
      </g>
      <g transform="translate(700, 91)" class="key keypos-21">
        <rect rx="6" ry="6" x="-26" y="-26" width="52" height="52" class="key"/>
        <text x="0" y="0" class="key tap" style="white-space: pre;">L</text>
      </g>
      <g transform="translate(756, 105)" class="key keypos-22">
        <rect rx="6" ry="6" x="-26" y="-26" width="52" height="52" class="key"/>
        <text x="0" y="0" class="key tap" style="white-space: pre;">;</text>
        <a href="#nav">
          <text x="0" y="24" class="key hold layer-activator" style="white-space: pre;">nav</text>
        </a>
        <text x="0" y="-24" class="key shifted" style="white-space: pre;">:</text>
      </g>
      <g transform="translate(812, 105)" class="key keypos-23">
        <rect rx="6" ry="6" x="-26" y="-26" width="52" height="52" class="key"/>
        <text x="0" y="0" class="key tap" style="white-space: pre;">'</text>
      </g>
      <g transform="translate(28, 161)" class="key keypos-24">
        <rect rx="6" ry="6" x="-26" y="-26" width="52" height="52" class="key"/>
        <text x="0" y="0" class="key tap" style="white-space: pre;">LSHIFT</text>
      </g>
      <g transform="translate(84, 161)" class="key keypos-25">
        <rect rx="6" ry="6" x="-26" y="-26" width="52" height="52" class="key"/>
        <text x="0" y="0" class="key tap" style="white-space: pre;">Z</text>
      </g>
      <g transform="translate(140, 147)" class="key keypos-26">
        <rect rx="6" ry="6" x="-26" y="-26" width="52" height="52" class="key"/>
        <text x="0" y="0" class="key tap" style="white-space: pre;">X</text>
      </g>
      <g transform="translate(196, 140)" class="key keypos-27">
        <rect rx="6" ry="6" x="-26" y="-26" width="52" height="52" class="key"/>
        <text x="0" y="0" class="key tap" style="white-space: pre;">C</text>
      </g>
      <g transform="translate(252, 147)" class="key keypos-28">
        <rect rx="6" ry="6" x="-26" y="-26" width="52" height="52" class="key"/>
        <text x="0" y="0" class="key tap" style="white-space: pre;">V</text>
      </g>
      <g transform="translate(308, 154)" class="key keypos-29">
        <rect rx="6" ry="6" x="-26" y="-26" width="52" height="52" class="key"/>
        <text x="0" y="0" class="key tap" style="white-space: pre;">B</text>
      </g>
      <g transform="translate(532, 154)" class="key keypos-30">
        <rect rx="6" ry="6" x="-26" y="-26" width="52" height="52" class="key"/>
        <text x="0" y="0" class="key tap" style="white-space: pre;">N</text>
      </g>
      <g transform="translate(588, 147)" class="key keypos-31">
        <rect rx="6" ry="6" x="-26" y="-26" width="52" height="52" class="key"/>
        <text x="0" y="0" class="key tap" style="white-space: pre;">M</text>
      </g>
      <g transform="translate(644, 140)" class="key keypos-32">
        <rect rx="6" ry="6" x="-26" y="-26" width="52" height="52" class="key"/>
        <text x="0" y="0" class="key tap" style="white-space: pre;">,</text>
        <text x="0" y="-24" class="key shifted" style="white-space: pre;">&lt;</text>
      </g>
      <g transform="translate(700, 147)" class="key keypos-33">
        <rect rx="6" ry="6" x="-26" y="-26" width="52" height="52" class="key"/>
        <text x="0" y="0" class="key tap" style="white-space: pre;">.</text>
        <text x="0" y="-24" class="key shifted" style="white-space: pre;">&gt;</text>
      </g>
      <g transform="translate(756, 161)" class="key keypos-34">
        <rect rx="6" ry="6" x="-26" y="-26" width="52" height="52" class="key"/>
        <text x="0" y="0" class="key tap" style="white-space: pre;">/</text>
      </g>
      <g transform="translate(812, 161)" class="key keypos-35">
        <rect rx="6" ry="6" x="-26" y="-26" width="52" height="52" class="key"/>
        <text x="0" y="0" class="key tap" style="white-space: pre;">⌃</text>
      </g>
      <g transform="translate(224, 205)" class="key keypos-36">
        <rect rx="6" ry="6" x="-26" y="-26" width="52" height="52" class="key"/>
        <text x="0" y="0" class="key tap" style="white-space: pre;">LMETA</text>
      </g>
      <g transform="translate(286, 213) rotate(15.0)" class="key keypos-37">
        <rect rx="6" ry="6" x="-26" y="-26" width="52" height="52" class="key"/>
        <a href="#sym">
          <text x="0" y="0" class="key tap layer-activator" style="white-space: pre;">sym</text>
        </a>
      </g>
      <g transform="translate(351, 224) rotate(30.0)" class="key keypos-38">
        <rect rx="6" ry="6" x="-26" y="-40" width="52" height="80" class="key"/>
        <text x="0" y="0" class="key tap" style="white-space: pre;">SPACE</text>
      </g>
      <g transform="translate(489, 224) rotate(-30.0)" class="key keypos-39">
        <rect rx="6" ry="6" x="-26" y="-40" width="52" height="80" class="key"/>
        <text x="0" y="0" class="key tap" style="white-space: pre;">ENTER</text>
      </g>
      <g transform="translate(554, 213) rotate(-15.0)" class="key keypos-40">
        <rect rx="6" ry="6" x="-26" y="-26" width="52" height="52" class="key"/>
        <a href="#nav">
          <text x="0" y="0" class="key tap layer-activator" style="white-space: pre;">nav</text>
        </a>
      </g>
      <g transform="translate(616, 205)" class="key keypos-41">
        <rect rx="6" ry="6" x="-26" y="-26" width="52" height="52" class="key"/>
        <text x="0" y="0" class="key tap" style="white-space: pre;">RALT</text>
      </g>
      <g class="combo combopos-0">
        <rect rx="6" ry="6" x="658" y="130" width="28" height="26" class="combo"/>
        <text x="672" y="144" class="combo tap" style="white-space: pre;">;</text>
        <text x="672" y="132" class="combo shifted" style="white-space: pre;">:</text>
      </g>
      <g class="combo combopos-1">
        <rect rx="6" ry="6" x="210" y="74" width="28" height="26" class="combo"/>
        <text x="224" y="88" class="combo tap" style="white-space: pre;">(</text>
      </g>
      <g class="combo combopos-2">
        <rect rx="6" ry="6" x="602" y="74" width="28" height="26" class="combo"/>
        <text x="616" y="88" class="combo tap" style="white-space: pre;">)</text>
      </g>
      <g class="combo combopos-3">
        <rect rx="6" ry="6" x="210" y="18" width="28" height="26" class="combo"/>
        <text x="224" y="32" class="combo tap" style="white-space: pre;">[</text>
      </g>
      <g class="combo combopos-4">
        <rect rx="6" ry="6" x="602" y="18" width="28" height="26" class="combo"/>
        <text x="616" y="32" class="combo tap" style="white-space: pre;">]</text>
      </g>
      <g class="combo combopos-5">
        <rect rx="6" ry="6" x="658" y="74" width="28" height="26" class="combo"/>
        <text x="672" y="88" class="combo tap" style="white-space: pre;">:</text>
      </g>
      <g class="combo combopos-6">
        <rect rx="6" ry="6" x="154" y="74" width="28" height="26" class="combo"/>
        <text x="168" y="88" class="combo tap" style="white-space: pre;">`</text>
        <text x="168" y="76" class="combo shifted" style="white-space: pre;">~</text>
      </g>
      <g class="combo combopos-7">
        <rect rx="6" ry="6" x="210" y="130" width="28" height="26" class="combo"/>
        <text x="224" y="144" class="combo tap" style="white-space: pre;">{</text>
      </g>
      <g class="combo combopos-8">
        <rect rx="6" ry="6" x="602" y="130" width="28" height="26" class="combo"/>
        <text x="616" y="144" class="combo tap" style="white-space: pre;">}</text>
      </g>
      <g class="combo combopos-9">
        <rect rx="6" ry="6" x="154" y="18" width="28" height="26" class="combo"/>
        <text x="168" y="32" class="combo tap" style="white-space: pre;">&lt;</text>
      </g>
      <g class="combo combopos-10">
        <rect rx="6" ry="6" x="658" y="18" width="28" height="26" class="combo"/>
        <text x="672" y="32" class="combo tap" style="white-space: pre;">&gt;</text>
      </g>
      <g class="combo combopos-11" transform="matrix(1, 0, 0, 1, -0.846962, 4.658288)">
        <path d="M420,147 l-149,0" class="combo"/>
        <path d="M420,147 l149,0" class="combo"/>
        <rect rx="6" ry="6" x="406" y="134" width="28" height="26" class="combo"/>
        <text x="420" y="147" class="combo tap" style="white-space: pre;">-</text>
        <text x="420" y="136" class="combo shifted" style="white-space: pre;">_</text>
      </g>
      <g class="combo combopos-12" transform="matrix(1, 0, 0, 1, -0.846962, 5.081769)">
        <path d="M420,35 l-149,0" class="combo"/>
        <path d="M420,35 l149,0" class="combo"/>
        <rect rx="6" ry="6" x="406" y="22" width="28" height="26" class="combo"/>
        <text x="420" y="35" class="combo tap" style="white-space: pre;">+</text>
      </g>
      <g class="combo combopos-13" transform="matrix(1, 0, 0, 1, -0.423481, -2.964365)">
        <path d="M420,91 l-149,0" class="combo"/>
        <path d="M420,91 l149,0" class="combo"/>
        <rect rx="6" ry="6" x="406" y="78" width="28" height="26" class="combo"/>
        <text x="420" y="91" class="combo tap" style="white-space: pre;">=</text>
        <text x="420" y="80" class="combo shifted" style="white-space: pre;">+</text>
      </g>
      <g class="combo combopos-14">
        <rect rx="6" ry="6" x="154" y="130" width="28" height="26" class="combo"/>
        <text x="168" y="144" class="combo tap" style="white-space: pre;">|</text>
      </g>
      <g class="combo combopos-15" transform="matrix(1, 0, 0, 1, -0.846962, -14.398347)">
        <path d="M420,28 l-205,0" class="combo"/>
        <path d="M420,28 l205,0" class="combo"/>
        <rect rx="6" ry="6" x="406" y="15" width="28" height="26" class="combo"/>
        <text x="420" y="28" class="combo tap" style="white-space: pre;">*</text>
      </g>
      <g class="combo combopos-16" transform="matrix(1, 0, 0, 1, 0, -19.903597)">
        <path d="M420,84 l-205,0" class="combo"/>
        <path d="M420,84 l205,0" class="combo"/>
        <rect rx="6" ry="6" x="406" y="71" width="28" height="26" class="combo"/>
        <text x="420" y="84" class="combo tap" style="white-space: pre;">$</text>
      </g>
      <g class="combo combopos-17" transform="matrix(1, 0, 0, 1, -1.270442, -11.0105)">
        <path d="M420,140 l-205,0" class="combo"/>
        <path d="M420,140 l205,0" class="combo"/>
        <rect rx="6" ry="6" x="406" y="127" width="28" height="26" class="combo"/>
        <text x="420" y="140" class="combo tap" style="white-space: pre;">!</text>
      </g>
      <g class="combo combopos-18" transform="matrix(1, 0, 0, 1, -0.846962, 9.740058)">
        <path d="M420,98 l-93,0" class="combo"/>
        <path d="M420,98 l93,0" class="combo"/>
        <rect rx="6" ry="6" x="406" y="85" width="28" height="26" class="combo"/>
        <text x="420" y="98" class="combo tap" style="white-space: pre;">&amp;</text>
      </g>
      <g class="combo combopos-19" transform="matrix(1, 0, 0, 1, -0.423481, 22.444481)">
        <path d="M420,154 l-93,0" class="combo"/>
        <path d="M420,154 l93,0" class="combo"/>
        <rect rx="6" ry="6" x="406" y="141" width="28" height="26" class="combo"/>
        <text x="420" y="154" class="combo tap" style="white-space: pre;">_</text>
      </g>
      <g class="combo combopos-20">
        <rect rx="6" ry="6" x="714" y="85" width="28" height="26" class="combo"/>
        <text x="728" y="98" class="combo tap" style="white-space: pre;">\</text>
        <text x="728" y="87" class="combo shifted" style="white-space: pre;">|</text>
      </g>
      <g class="combo combopos-21">
        <rect rx="6" ry="6" x="98" y="85" width="28" height="26" class="combo"/>
        <text x="112" y="98" class="combo tap" style="white-space: pre;">~</text>
      </g>
    </g>
  </g>
  <g transform="translate(30, 331)" class="layer-sym">
    <text x="0" y="28" class="label" id="sym" style="white-space: pre;">sym:</text>
    <g transform="translate(0, 56)">
      <g transform="translate(28, 49)" class="key keypos-0">
        <rect rx="6" ry="6" x="-26" y="-26" width="52" height="52" class="key"/>
      </g>
      <g transform="translate(84, 49)" class="key keypos-1">
        <rect rx="6" ry="6" x="-26" y="-26" width="52" height="52" class="key"/>
        <text x="0" y="0" class="key tap" style="white-space: pre;">1</text>
      </g>
      <g transform="translate(140, 35)" class="key keypos-2">
        <rect rx="6" ry="6" x="-26" y="-26" width="52" height="52" class="key"/>
        <text x="0" y="0" class="key tap" style="white-space: pre;">2</text>
      </g>
      <g transform="translate(196, 28)" class="key keypos-3">
        <rect rx="6" ry="6" x="-26" y="-26" width="52" height="52" class="key"/>
        <text x="0" y="0" class="key tap" style="white-space: pre;">3</text>
      </g>
      <g transform="translate(252, 35)" class="key keypos-4">
        <rect rx="6" ry="6" x="-26" y="-26" width="52" height="52" class="key"/>
        <text x="0" y="0" class="key tap" style="white-space: pre;">4</text>
      </g>
      <g transform="translate(308, 42)" class="key keypos-5">
        <rect rx="6" ry="6" x="-26" y="-26" width="52" height="52" class="key"/>
        <text x="0" y="0" class="key tap" style="white-space: pre;">5</text>
      </g>
      <g transform="translate(532, 42)" class="key keypos-6">
        <rect rx="6" ry="6" x="-26" y="-26" width="52" height="52" class="key"/>
        <text x="0" y="0" class="key tap" style="white-space: pre;">6</text>
      </g>
      <g transform="translate(588, 35)" class="key keypos-7">
        <rect rx="6" ry="6" x="-26" y="-26" width="52" height="52" class="key"/>
        <text x="0" y="0" class="key tap" style="white-space: pre;">7</text>
      </g>
      <g transform="translate(644, 28)" class="key keypos-8">
        <rect rx="6" ry="6" x="-26" y="-26" width="52" height="52" class="key"/>
        <text x="0" y="0" class="key tap" style="white-space: pre;">8</text>
      </g>
      <g transform="translate(700, 35)" class="key keypos-9">
        <rect rx="6" ry="6" x="-26" y="-26" width="52" height="52" class="key"/>
        <text x="0" y="0" class="key tap" style="white-space: pre;">9</text>
      </g>
      <g transform="translate(756, 49)" class="key keypos-10">
        <rect rx="6" ry="6" x="-26" y="-26" width="52" height="52" class="key"/>
        <text x="0" y="0" class="key tap" style="white-space: pre;">0</text>
      </g>
      <g transform="translate(812, 49)" class="key keypos-11">
        <rect rx="6" ry="6" x="-26" y="-26" width="52" height="52" class="key"/>
        <text x="0" y="0" class="key tap" style="white-space: pre;">PSCRN</text>
      </g>
      <g transform="translate(28, 105)" class="key keypos-12">
        <rect rx="6" ry="6" x="-26" y="-26" width="52" height="52" class="key"/>
        <text x="0" y="0" class="key tap" style="white-space: pre;">PREV</text>
      </g>
      <g transform="translate(84, 105)" class="key keypos-13">
        <rect rx="6" ry="6" x="-26" y="-26" width="52" height="52" class="key"/>
        <text x="0" y="0" class="key tap" style="white-space: pre;">PP</text>
      </g>
      <g transform="translate(140, 91)" class="key keypos-14">
        <rect rx="6" ry="6" x="-26" y="-26" width="52" height="52" class="key"/>
        <text x="0" y="0" class="key tap" style="white-space: pre;">NEXT</text>
      </g>
      <g transform="translate(196, 84)" class="key keypos-15">
        <rect rx="6" ry="6" x="-26" y="-26" width="52" height="52" class="key"/>
        <text x="0" y="0" class="key tap" style="white-space: pre;">
<tspan x="0" dy="-0.6em">VOL</tspan><tspan x="0" dy="1.2em">MUTE</tspan>
</text>
      </g>
      <g transform="translate(252, 91)" class="key keypos-16">
        <rect rx="6" ry="6" x="-26" y="-26" width="52" height="52" class="key"/>
        <text x="0" y="0" class="key tap" style="white-space: pre;">
<tspan x="0" dy="-0.6em">VOL</tspan><tspan x="0" dy="1.2em">UP</tspan>
</text>
      </g>
      <g transform="translate(308, 98)" class="key keypos-17">
        <rect rx="6" ry="6" x="-26" y="-26" width="52" height="52" class="key"/>
        <text x="0" y="0" class="key tap" style="white-space: pre;">
<tspan x="0" dy="-0.6em">VOL</tspan><tspan x="0" dy="1.2em">DN</tspan>
</text>
      </g>
      <g transform="translate(532, 98)" class="key keypos-18">
        <rect rx="6" ry="6" x="-26" y="-26" width="52" height="52" class="key"/>
        <text x="0" y="0" class="key tap" style="white-space: pre;">=</text>
        <text x="0" y="-24" class="key shifted" style="white-space: pre;">+</text>
      </g>
      <g transform="translate(588, 91)" class="key keypos-19">
        <rect rx="6" ry="6" x="-26" y="-26" width="52" height="52" class="key"/>
        <text x="0" y="0" class="key tap" style="white-space: pre;">$</text>
      </g>
      <g transform="translate(644, 84)" class="key keypos-20">
        <rect rx="6" ry="6" x="-26" y="-26" width="52" height="52" class="key"/>
        <text x="0" y="0" class="key tap" style="white-space: pre;">%</text>
      </g>
      <g transform="translate(700, 91)" class="key keypos-21">
        <rect rx="6" ry="6" x="-26" y="-26" width="52" height="52" class="key"/>
        <text x="0" y="0" class="key tap" style="white-space: pre;">^</text>
      </g>
      <g transform="translate(756, 105)" class="key keypos-22">
        <rect rx="6" ry="6" x="-26" y="-26" width="52" height="52" class="key"/>
        <text x="0" y="0" class="key tap" style="white-space: pre;">\</text>
        <text x="0" y="-24" class="key shifted" style="white-space: pre;">|</text>
      </g>
      <g transform="translate(812, 105)" class="key keypos-23">
        <rect rx="6" ry="6" x="-26" y="-26" width="52" height="52" class="key"/>
        <text x="0" y="0" class="key tap" style="white-space: pre;">`</text>
        <text x="0" y="-24" class="key shifted" style="white-space: pre;">~</text>
      </g>
      <g transform="translate(28, 161)" class="key keypos-24">
        <rect rx="6" ry="6" x="-26" y="-26" width="52" height="52" class="key"/>
      </g>
      <g transform="translate(84, 161)" class="key keypos-25">
        <rect rx="6" ry="6" x="-26" y="-26" width="52" height="52" class="key"/>
      </g>
      <g transform="translate(140, 147)" class="key keypos-26">
        <rect rx="6" ry="6" x="-26" y="-26" width="52" height="52" class="key"/>
      </g>
      <g transform="translate(196, 140)" class="key keypos-27">
        <rect rx="6" ry="6" x="-26" y="-26" width="52" height="52" class="key"/>
      </g>
      <g transform="translate(252, 147)" class="key keypos-28">
        <rect rx="6" ry="6" x="-26" y="-26" width="52" height="52" class="key"/>
        <text x="0" y="0" class="key tap" style="white-space: pre;">
<tspan x="0" dy="-0.6em">BRI</tspan><tspan x="0" dy="1.2em">UP</tspan>
</text>
      </g>
      <g transform="translate(308, 154)" class="key keypos-29">
        <rect rx="6" ry="6" x="-26" y="-26" width="52" height="52" class="key"/>
        <text x="0" y="0" class="key tap" style="white-space: pre;">
<tspan x="0" dy="-0.6em">BRI</tspan><tspan x="0" dy="1.2em">DN</tspan>
</text>
      </g>
      <g transform="translate(532, 154)" class="key keypos-30">
        <rect rx="6" ry="6" x="-26" y="-26" width="52" height="52" class="key"/>
        <text x="0" y="0" class="key tap" style="white-space: pre;">-</text>
        <text x="0" y="-24" class="key shifted" style="white-space: pre;">_</text>
      </g>
      <g transform="translate(588, 147)" class="key keypos-31">
        <rect rx="6" ry="6" x="-26" y="-26" width="52" height="52" class="key"/>
        <text x="0" y="0" class="key tap" style="white-space: pre;">!</text>
      </g>
      <g transform="translate(644, 140)" class="key keypos-32">
        <rect rx="6" ry="6" x="-26" y="-26" width="52" height="52" class="key"/>
        <text x="0" y="0" class="key tap" style="white-space: pre;">@</text>
      </g>
      <g transform="translate(700, 147)" class="key keypos-33">
        <rect rx="6" ry="6" x="-26" y="-26" width="52" height="52" class="key"/>
        <text x="0" y="0" class="key tap" style="white-space: pre;">#</text>
      </g>
      <g transform="translate(756, 161)" class="key keypos-34">
        <rect rx="6" ry="6" x="-26" y="-26" width="52" height="52" class="key"/>
        <text x="0" y="0" class="key tap" style="white-space: pre;">|</text>
      </g>
      <g transform="translate(812, 161)" class="key keypos-35">
        <rect rx="6" ry="6" x="-26" y="-26" width="52" height="52" class="key"/>
        <text x="0" y="0" class="key tap" style="white-space: pre;">~</text>
      </g>
      <g transform="translate(224, 205)" class="key keypos-36">
        <rect rx="6" ry="6" x="-26" y="-26" width="52" height="52" class="key"/>
      </g>
      <g transform="translate(286, 213) rotate(15.0)" class="key held keypos-37">
        <rect rx="6" ry="6" x="-26" y="-26" width="52" height="52" class="key held"/>
      </g>
      <g transform="translate(351, 224) rotate(30.0)" class="key keypos-38">
        <rect rx="6" ry="6" x="-26" y="-40" width="52" height="80" class="key"/>
      </g>
      <g transform="translate(489, 224) rotate(-30.0)" class="key keypos-39">
        <rect rx="6" ry="6" x="-26" y="-40" width="52" height="80" class="key"/>
      </g>
      <g transform="translate(554, 213) rotate(-15.0)" class="key keypos-40">
        <rect rx="6" ry="6" x="-26" y="-26" width="52" height="52" class="key"/>
      </g>
      <g transform="translate(616, 205)" class="key keypos-41">
        <rect rx="6" ry="6" x="-26" y="-26" width="52" height="52" class="key"/>
      </g>
    </g>
  </g>
  <g transform="translate(30, 661)" class="layer-nav">
    <text x="0" y="28" class="label" id="nav" style="white-space: pre;">nav:</text>
    <g transform="translate(0, 56)">
      <g transform="translate(28, 49)" class="key keypos-0">
        <rect rx="6" ry="6" x="-26" y="-26" width="52" height="52" class="key"/>
      </g>
      <g transform="translate(84, 49)" class="key keypos-1">
        <rect rx="6" ry="6" x="-26" y="-26" width="52" height="52" class="key"/>
        <text x="0" y="0" class="key tap" style="white-space: pre;">
<tspan x="0" dy="-0.6em">PG</tspan><tspan x="0" dy="1.2em">DN</tspan>
</text>
      </g>
      <g transform="translate(140, 35)" class="key keypos-2">
        <rect rx="6" ry="6" x="-26" y="-26" width="52" height="52" class="key"/>
        <text x="0" y="0" class="key tap" style="white-space: pre;">
<tspan x="0" dy="-0.6em">PG</tspan><tspan x="0" dy="1.2em">UP</tspan>
</text>
      </g>
      <g transform="translate(196, 28)" class="key keypos-3">
        <rect rx="6" ry="6" x="-26" y="-26" width="52" height="52" class="key"/>
        <text x="0" y="0" class="key tap" style="white-space: pre;">INS</text>
      </g>
      <g transform="translate(252, 35)" class="key keypos-4">
        <rect rx="6" ry="6" x="-26" y="-26" width="52" height="52" class="key"/>
      </g>
      <g transform="translate(308, 42)" class="key keypos-5">
        <rect rx="6" ry="6" x="-26" y="-26" width="52" height="52" class="key"/>
      </g>
      <g transform="translate(532, 42)" class="key keypos-6">
        <rect rx="6" ry="6" x="-26" y="-26" width="52" height="52" class="key"/>
        <text x="0" y="0" class="key tap" style="white-space: pre;">
<tspan x="0" dy="-0.6em">SCRL</tspan><tspan x="0" dy="1.2em">↑</tspan>
</text>
      </g>
      <g transform="translate(588, 35)" class="key keypos-7">
        <rect rx="6" ry="6" x="-26" y="-26" width="52" height="52" class="key"/>
        <text x="0" y="0" class="key tap" style="white-space: pre;">
<tspan x="0" dy="-0.6em">SCRL</tspan><tspan x="0" dy="1.2em">↓</tspan>
</text>
      </g>
      <g transform="translate(644, 28)" class="key keypos-8">
        <rect rx="6" ry="6" x="-26" y="-26" width="52" height="52" class="key"/>
      </g>
      <g transform="translate(700, 35)" class="key keypos-9">
        <rect rx="6" ry="6" x="-26" y="-26" width="52" height="52" class="key"/>
      </g>
      <g transform="translate(756, 49)" class="key keypos-10">
        <rect rx="6" ry="6" x="-26" y="-26" width="52" height="52" class="key"/>
      </g>
      <g transform="translate(812, 49)" class="key keypos-11">
        <rect rx="6" ry="6" x="-26" y="-26" width="52" height="52" class="key"/>
      </g>
      <g transform="translate(28, 105)" class="key keypos-12">
        <rect rx="6" ry="6" x="-26" y="-26" width="52" height="52" class="key"/>
      </g>
      <g transform="translate(84, 105)" class="key keypos-13">
        <rect rx="6" ry="6" x="-26" y="-26" width="52" height="52" class="key"/>
        <text x="0" y="0" class="key tap" style="white-space: pre;">
<tspan x="0" dy="-1.2em">LEFT</tspan><tspan x="0" dy="1.2em">GUI</tspan>
</text>
        <text x="0" y="24" class="key hold" style="white-space: pre;">sticky</text>
      </g>
      <g transform="translate(140, 91)" class="key keypos-14">
        <rect rx="6" ry="6" x="-26" y="-26" width="52" height="52" class="key"/>
        <text x="0" y="0" class="key tap" style="white-space: pre;">LALT</text>
        <text x="0" y="24" class="key hold" style="white-space: pre;">sticky</text>
      </g>
      <g transform="translate(196, 84)" class="key keypos-15">
        <rect rx="6" ry="6" x="-26" y="-26" width="52" height="52" class="key"/>
        <text x="0" y="0" class="key tap" style="white-space: pre;">LSHIFT</text>
        <text x="0" y="24" class="key hold" style="white-space: pre;">sticky</text>
      </g>
      <g transform="translate(252, 91)" class="key keypos-16">
        <rect rx="6" ry="6" x="-26" y="-26" width="52" height="52" class="key"/>
        <text x="0" y="0" class="key tap" style="white-space: pre;">⌃</text>
        <text x="0" y="24" class="key hold" style="white-space: pre;">sticky</text>
      </g>
      <g transform="translate(308, 98)" class="key keypos-17">
        <rect rx="6" ry="6" x="-26" y="-26" width="52" height="52" class="key"/>
      </g>
      <g transform="translate(532, 98)" class="key keypos-18">
        <rect rx="6" ry="6" x="-26" y="-26" width="52" height="52" class="key"/>
        <text x="0" y="0" class="key tap" style="white-space: pre;">←</text>
      </g>
      <g transform="translate(588, 91)" class="key keypos-19">
        <rect rx="6" ry="6" x="-26" y="-26" width="52" height="52" class="key"/>
        <text x="0" y="0" class="key tap" style="white-space: pre;">↓</text>
      </g>
      <g transform="translate(644, 84)" class="key keypos-20">
        <rect rx="6" ry="6" x="-26" y="-26" width="52" height="52" class="key"/>
        <text x="0" y="0" class="key tap" style="white-space: pre;">↑</text>
      </g>
      <g transform="translate(700, 91)" class="key keypos-21">
        <rect rx="6" ry="6" x="-26" y="-26" width="52" height="52" class="key"/>
        <text x="0" y="0" class="key tap" style="white-space: pre;">→</text>
      </g>
      <g transform="translate(756, 105)" class="key held keypos-22">
        <rect rx="6" ry="6" x="-26" y="-26" width="52" height="52" class="key held"/>
      </g>
      <g transform="translate(812, 105)" class="key keypos-23">
        <rect rx="6" ry="6" x="-26" y="-26" width="52" height="52" class="key"/>
      </g>
      <g transform="translate(28, 161)" class="key keypos-24">
        <rect rx="6" ry="6" x="-26" y="-26" width="52" height="52" class="key"/>
        <text x="0" y="0" class="key tap" style="white-space: pre;">
<tspan x="0" dy="-0.6em">BT</tspan><tspan x="0" dy="1.2em">CLR</tspan>
</text>
      </g>
      <g transform="translate(84, 161)" class="key keypos-25">
        <rect rx="6" ry="6" x="-26" y="-26" width="52" height="52" class="key"/>
        <text x="0" y="0" class="key tap" style="white-space: pre;">BT</text>
        <text x="0" y="24" class="key hold" style="white-space: pre;">0</text>
      </g>
      <g transform="translate(140, 147)" class="key keypos-26">
        <rect rx="6" ry="6" x="-26" y="-26" width="52" height="52" class="key"/>
        <text x="0" y="0" class="key tap" style="white-space: pre;">BT</text>
        <text x="0" y="24" class="key hold" style="white-space: pre;">1</text>
      </g>
      <g transform="translate(196, 140)" class="key keypos-27">
        <rect rx="6" ry="6" x="-26" y="-26" width="52" height="52" class="key"/>
        <text x="0" y="0" class="key tap" style="white-space: pre;">BT</text>
        <text x="0" y="24" class="key hold" style="white-space: pre;">2</text>
      </g>
      <g transform="translate(252, 147)" class="key keypos-28">
        <rect rx="6" ry="6" x="-26" y="-26" width="52" height="52" class="key"/>
        <text x="0" y="0" class="key tap" style="white-space: pre;">BT</text>
        <text x="0" y="24" class="key hold" style="white-space: pre;">3</text>
      </g>
      <g transform="translate(308, 154)" class="key keypos-29">
        <rect rx="6" ry="6" x="-26" y="-26" width="52" height="52" class="key"/>
      </g>
      <g transform="translate(532, 154)" class="key keypos-30">
        <rect rx="6" ry="6" x="-26" y="-26" width="52" height="52" class="key"/>
      </g>
      <g transform="translate(588, 147)" class="key keypos-31">
        <rect rx="6" ry="6" x="-26" y="-26" width="52" height="52" class="key"/>
      </g>
      <g transform="translate(644, 140)" class="key keypos-32">
        <rect rx="6" ry="6" x="-26" y="-26" width="52" height="52" class="key"/>
        <text x="0" y="0" class="key tap" style="white-space: pre;">END</text>
      </g>
      <g transform="translate(700, 147)" class="key keypos-33">
        <rect rx="6" ry="6" x="-26" y="-26" width="52" height="52" class="key"/>
      </g>
      <g transform="translate(756, 161)" class="key keypos-34">
        <rect rx="6" ry="6" x="-26" y="-26" width="52" height="52" class="key"/>
      </g>
      <g transform="translate(812, 161)" class="key keypos-35">
        <rect rx="6" ry="6" x="-26" y="-26" width="52" height="52" class="key"/>
      </g>
      <g transform="translate(224, 205)" class="key keypos-36">
        <rect rx="6" ry="6" x="-26" y="-26" width="52" height="52" class="key"/>
        <text x="0" y="0" class="key tap" style="white-space: pre;">
<tspan x="0" dy="-0.6em">L</tspan><tspan x="0" dy="1.2em">CLK</tspan>
</text>
      </g>
      <g transform="translate(286, 213) rotate(15.0)" class="key keypos-37">
        <rect rx="6" ry="6" x="-26" y="-26" width="52" height="52" class="key"/>
        <text x="0" y="0" class="key tap" style="white-space: pre;">
<tspan x="0" dy="-0.6em">M</tspan><tspan x="0" dy="1.2em">CLK</tspan>
</text>
      </g>
      <g transform="translate(351, 224) rotate(30.0)" class="key keypos-38">
        <rect rx="6" ry="6" x="-26" y="-40" width="52" height="80" class="key"/>
        <text x="0" y="0" class="key tap" style="white-space: pre;">
<tspan x="0" dy="-0.6em">R</tspan><tspan x="0" dy="1.2em">CLK</tspan>
</text>
      </g>
      <g transform="translate(489, 224) rotate(-30.0)" class="key keypos-39">
        <rect rx="6" ry="6" x="-26" y="-40" width="52" height="80" class="key"/>
        <text x="0" y="0" class="key tap" style="white-space: pre;">
<tspan x="0" dy="-0.6em">L</tspan><tspan x="0" dy="1.2em">CLK</tspan>
</text>
      </g>
      <g transform="translate(554, 213) rotate(-15.0)" class="key keypos-40">
        <rect rx="6" ry="6" x="-26" y="-26" width="52" height="52" class="key"/>
        <text x="0" y="0" class="key tap" style="white-space: pre;">
<tspan x="0" dy="-0.6em">M</tspan><tspan x="0" dy="1.2em">CLK</tspan>
</text>
      </g>
      <g transform="translate(616, 205)" class="key keypos-41">
        <rect rx="6" ry="6" x="-26" y="-26" width="52" height="52" class="key"/>
        <text x="0" y="0" class="key tap" style="white-space: pre;">
<tspan x="0" dy="-0.6em">R</tspan><tspan x="0" dy="1.2em">CLK</tspan>
</text>
      </g>
    </g>
  </g>
</svg>